<svg width="180" height="28" viewBox="0 0 180 28" fill="none" xmlns="http://www.w3.org/2000/svg">
<path d="M62.498 27.3516C59.1816 27.3516 56.5098 26.4902 54.4824 24.7676C52.4668 23.0332 51.3066 20.6191 51.002 17.5254H57.1719C57.3477 19.0723 57.916 20.2852 58.877 21.1641C59.8379 22.0312 61.0918 22.4648 62.6387 22.4648C64.1621 22.4648 65.3516 22.1777 66.207 21.6035C67.0625 21.0293 67.4902 20.2266 67.4902 19.1953C67.4902 18.7969 67.4199 18.4395 67.2793 18.123C67.1504 17.8066 66.9277 17.5371 66.6113 17.3145C66.3066 17.0918 66.002 16.9043 65.6973 16.752C65.3926 16.5996 64.9707 16.4648 64.4316 16.3477C63.8926 16.2305 63.4238 16.1426 63.0254 16.084C62.6387 16.0137 62.1113 15.9316 61.4434 15.8379C59.123 15.5098 57.4355 15.1641 56.3809 14.8008C54.0137 13.9688 52.5605 12.5391 52.0215 10.5117C51.8457 9.85547 51.7578 9.13477 51.7578 8.34961C51.7578 5.64258 52.6953 3.57422 54.5703 2.14453C56.457 0.714844 59.0996 0 62.498 0C65.5215 0 67.9648 0.832031 69.8281 2.49609C71.6914 4.14844 72.7754 6.45117 73.0801 9.4043H66.9277C66.8223 7.98633 66.3477 6.88477 65.5039 6.09961C64.6602 5.30273 63.5352 4.9043 62.1289 4.9043C60.875 4.9043 59.8906 5.16211 59.1758 5.67773C58.4609 6.18164 58.1035 6.89062 58.1035 7.80469C58.1035 8.14453 58.1621 8.44922 58.2793 8.71875C58.4082 8.98828 58.6191 9.22266 58.9121 9.42188C59.2168 9.62109 59.5039 9.78516 59.7734 9.91406C60.043 10.043 60.4414 10.166 60.9688 10.2832C61.4961 10.3887 61.9297 10.4707 62.2695 10.5293C62.6094 10.5879 63.1133 10.6641 63.7812 10.7578C64.6367 10.8867 65.3047 10.9922 65.7852 11.0742C66.2656 11.1445 66.9102 11.2793 67.7188 11.4785C68.5273 11.6777 69.1719 11.8887 69.6523 12.1113C70.1328 12.334 70.6719 12.6445 71.2695 13.043C71.8672 13.4297 72.3301 13.8633 72.6582 14.3438C72.9863 14.8242 73.2617 15.416 73.4844 16.1191C73.7188 16.8223 73.8359 17.6074 73.8359 18.4746C73.8359 21.2637 72.834 23.4434 70.8301 25.0137C68.8379 26.5723 66.0605 27.3516 62.498 27.3516Z" fill="black"/>
<path d="M88.172 8.75391V12.7793H82.8809V20.3379C82.8809 21.0645 83.1153 21.6328 83.5841 22.043C84.0528 22.4414 84.6973 22.6406 85.5177 22.6406C86.3614 22.6406 87.1407 22.4473 87.8555 22.0605V26.4551C86.5899 27.0527 85.172 27.3516 83.6016 27.3516C81.504 27.3516 79.8634 26.8125 78.6798 25.7344C77.4962 24.6445 76.9044 23.1328 76.9044 21.1992V12.7793H74.5313V8.75391H77.2384V2.84766H83.2149V6.08203L78.8204 8.68359V8.75391H88.172Z" fill="black"/>
<path d="M101.102 8.38477C102.215 8.38477 103.135 8.58984 103.861 9L102.139 14.2559C101.459 13.8223 100.656 13.6055 99.7306 13.6055C98.4884 13.6055 97.5216 14.0977 96.8302 15.082C96.1505 16.0664 95.8107 17.4492 95.8107 19.2305V27H89.8341V8.75391H95.8107V16.6641H95.881C95.881 14.0625 96.338 12.0352 97.2521 10.582C98.1779 9.11719 99.4611 8.38477 101.102 8.38477Z" fill="black"/>
<path d="M121.783 17.8594V18.5098H109.004C109.074 19.9043 109.42 20.9883 110.041 21.7617C110.662 22.5234 111.506 22.9043 112.572 22.9043C113.451 22.9043 114.196 22.6816 114.805 22.2363C115.426 21.791 115.836 21.1816 116.035 20.4082H121.783C121.444 22.5879 120.459 24.293 118.83 25.5234C117.201 26.7422 115.115 27.3516 112.572 27.3516C109.619 27.3516 107.322 26.5195 105.682 24.8555C104.041 23.1797 103.221 20.8477 103.221 17.8594C103.221 14.8711 104.041 12.5449 105.682 10.8809C107.322 9.2168 109.619 8.38477 112.572 8.38477C115.479 8.38477 117.74 9.2168 119.358 10.8809C120.975 12.5449 121.783 14.8711 121.783 17.8594ZM112.572 12.8145C111.576 12.8145 110.768 13.1602 110.147 13.8516C109.526 14.543 109.156 15.5156 109.039 16.7695H116C115.86 15.5039 115.496 14.5312 114.91 13.8516C114.324 13.1602 113.545 12.8145 112.572 12.8145Z" fill="black"/>
<path d="M136.401 15.1875V8.75391H142.377V27H136.401V20.5488H136.33C136.33 22.6816 135.774 24.3516 134.66 25.5586C133.547 26.7539 131.994 27.3516 130.002 27.3516C127.823 27.3516 126.112 26.5195 124.869 24.8555C123.639 23.1797 123.024 20.8477 123.024 17.8594C123.024 14.8945 123.639 12.5742 124.869 10.8984C126.112 9.22266 127.823 8.38477 130.002 8.38477C131.994 8.38477 133.547 8.98242 134.66 10.1777C135.774 11.373 136.33 13.043 136.33 15.1875H136.401ZM132.92 22.6406C134.069 22.6406 134.977 22.1953 135.645 21.3047C136.325 20.4141 136.664 19.2656 136.664 17.8594C136.664 16.4766 136.325 15.334 135.645 14.4316C134.977 13.5176 134.069 13.0605 132.92 13.0605C131.737 13.0605 130.811 13.4883 130.143 14.3438C129.475 15.1875 129.141 16.3594 129.141 17.8594C129.141 19.3711 129.475 20.5488 130.143 21.3926C130.811 22.2246 131.737 22.6406 132.92 22.6406Z" fill="black"/>
<path d="M167.277 8.38477C169.199 8.38477 170.699 9.04102 171.777 10.3535C172.855 11.666 173.395 13.4941 173.395 15.8379V27H167.418V16.1367C167.418 15.1641 167.184 14.4082 166.715 13.8691C166.246 13.3301 165.59 13.0605 164.746 13.0605C163.797 13.0605 163.053 13.4121 162.514 14.1152C161.986 14.8184 161.723 15.791 161.723 17.0332V27H155.746V16.1367C155.746 15.1641 155.506 14.4082 155.025 13.8691C154.557 13.3301 153.9 13.0605 153.057 13.0605C152.107 13.0605 151.363 13.4121 150.824 14.1152C150.297 14.8184 150.033 15.791 150.033 17.0332V27H144.057V8.75391H150.033V15.2227H150.104C150.104 13.0781 150.602 11.4023 151.598 10.1953C152.605 8.98828 154.012 8.38477 155.816 8.38477C157.668 8.38477 159.115 8.99414 160.158 10.2129C161.201 11.4199 161.723 13.0898 161.723 15.2227H161.793C161.793 13.0781 162.273 11.4023 163.234 10.1953C164.195 8.98828 165.543 8.38477 167.277 8.38477Z" fill="#D81159"/>
<path d="M170.277 8.38477C172.199 8.38477 173.699 9.04102 174.777 10.3535C175.855 11.666 176.395 13.4941 176.395 15.8379V27H170.418V16.1367C170.418 15.1641 170.184 14.4082 169.715 13.8691C169.246 13.3301 168.59 13.0605 167.746 13.0605C166.797 13.0605 166.053 13.4121 165.514 14.1152C164.986 14.8184 164.723 15.791 164.723 17.0332V27H158.746V16.1367C158.746 15.1641 158.506 14.4082 158.025 13.8691C157.557 13.3301 156.9 13.0605 156.057 13.0605C155.107 13.0605 154.363 13.4121 153.824 14.1152C153.297 14.8184 153.033 15.791 153.033 17.0332V27H147.057V8.75391H153.033V15.2227H153.104C153.104 13.0781 153.602 11.4023 154.598 10.1953C155.605 8.98828 157.012 8.38477 158.816 8.38477C160.668 8.38477 162.115 8.99414 163.158 10.2129C164.201 11.4199 164.723 13.0898 164.723 15.2227H164.793C164.793 13.0781 165.273 11.4023 166.234 10.1953C167.195 8.98828 168.543 8.38477 170.277 8.38477Z" fill="#3235D8"/>
<path d="M173.277 8.38477C175.199 8.38477 176.699 9.04102 177.777 10.3535C178.855 11.666 179.395 13.4941 179.395 15.8379V27H173.418V16.1367C173.418 15.1641 173.184 14.4082 172.715 13.8691C172.246 13.3301 171.59 13.0605 170.746 13.0605C169.797 13.0605 169.053 13.4121 168.514 14.1152C167.986 14.8184 167.723 15.791 167.723 17.0332V27H161.746V16.1367C161.746 15.1641 161.506 14.4082 161.025 13.8691C160.557 13.3301 159.9 13.0605 159.057 13.0605C158.107 13.0605 157.363 13.4121 156.824 14.1152C156.297 14.8184 156.033 15.791 156.033 17.0332V27H150.057V8.75391H156.033V15.2227H156.104C156.104 13.0781 156.602 11.4023 157.598 10.1953C158.605 8.98828 160.012 8.38477 161.816 8.38477C163.668 8.38477 165.115 8.99414 166.158 10.2129C167.201 11.4199 167.723 13.0898 167.723 15.2227H167.793C167.793 13.0781 168.273 11.4023 169.234 10.1953C170.195 8.98828 171.543 8.38477 173.277 8.38477Z" fill="#FFBC42"/>
<g clip-path="url(#clip0_3_141)">
<path d="M24.5455 28C32.0013 28 38.0455 21.9558 38.0455 14.5C38.0455 7.04416 32.0013 1 24.5455 1C17.0896 1 11.0455 7.04416 11.0455 14.5C11.0455 21.9558 17.0896 28 24.5455 28Z" fill="#3235D8"/>
<mask id="mask0_3_141" style="mask-type:luminance" maskUnits="userSpaceOnUse" x="16" y="6" width="18" height="17">
<path d="M33.022 6.19434H16.2402V22.976H33.022V6.19434Z" fill="white"/>
</mask>
<g mask="url(#mask0_3_141)">
<path fill-rule="evenodd" clip-rule="evenodd" d="M20.2064 9.52417C20.2223 9.3648 20.2782 9.21198 20.3692 9.08014C20.4557 8.94657 20.5722 8.83512 20.7095 8.75461C20.846 8.66614 21.0056 8.61978 21.1683 8.62138C21.3249 8.60936 21.4821 8.6347 21.627 8.69536C23.1762 9.37883 24.6879 10.1446 26.1554 10.9892C27.6215 11.8243 29.0349 12.7485 30.3878 13.7566C30.5192 13.8495 30.6263 13.9726 30.7003 14.1155C30.7742 14.2584 30.8127 14.417 30.8127 14.5779C30.8127 14.7388 30.7742 14.8974 30.7003 15.0403C30.6263 15.1832 30.5192 15.3062 30.3878 15.3992C29.0363 16.4092 27.6227 17.3335 26.1554 18.1666C24.6947 19.0237 23.1823 19.7898 21.627 20.4603C21.4791 20.5398 21.3137 20.5809 21.1459 20.5801C20.978 20.5793 20.813 20.5365 20.6659 20.4556C20.5188 20.3747 20.3943 20.2583 20.3037 20.1169C20.2131 19.9756 20.1593 19.8139 20.1472 19.6464C19.7723 16.2827 19.7723 12.8879 20.1472 9.52417H20.2064Z" fill="white"/>
</g>
<path d="M6.54125 14.5C6.53654 18.2247 7.24125 21.8915 8.59091 25.1651C6.20328 25.7105 3.90281 26.2703 1.91857 26.7727C0.652764 22.8957 0 18.72 0 14.5C0 10.28 0.652764 6.10424 1.91857 2.22726C3.90281 2.72966 6.20328 3.28946 8.59091 3.83492C7.24125 7.10845 6.53654 10.7753 6.54125 14.5Z" fill="#FFBC42"/>
<path d="M13.2735 14.5C13.273 18.1262 14.2185 21.6446 15.9545 24.4761C14.292 24.797 12.5593 25.1635 10.85 25.5455C9.36981 22.1847 8.59088 18.3763 8.59088 14.5C8.59088 10.6238 9.36981 6.81533 10.85 3.45456C12.5593 3.83649 14.292 4.20307 15.9545 4.5239C14.2185 7.35543 13.273 10.8738 13.2735 14.5Z" fill="#D81159"/>
<path d="M39.2727 14.5C39.2748 18.3725 38.6343 22.1791 37.4141 25.5455C35.9685 25.1598 34.5229 24.805 33.1364 24.481C34.564 21.6361 35.3402 18.1207 35.3402 14.5C35.3402 10.8793 34.564 7.36393 33.1364 4.519C34.5229 4.19504 35.9685 3.84023 37.4141 3.45456C38.6343 6.8209 39.2748 10.6275 39.2727 14.5Z" fill="#D81159"/>
<path d="M47.8636 14.5C47.8651 18.7182 47.221 22.8931 45.9703 26.7727C43.9566 26.2656 41.6475 25.7005 39.2727 25.1644C40.6013 21.885 41.2967 18.2214 41.2967 14.5C41.2967 10.7786 40.6013 7.11498 39.2727 3.8356C41.6475 3.29948 43.9566 2.7344 45.9703 2.22726C47.221 6.10688 47.8651 10.2817 47.8636 14.5Z" fill="#FFBC42"/>
</g>
<defs>
<clipPath id="clip0_3_141">
<rect width="47.8636" height="27" fill="white" transform="translate(0 1)"/>
</clipPath>
</defs>
</svg>
