<svg
  xmlns="http://www.w3.org/2000/svg"
  width="24"
  height="24"
  viewBox="0 0 24 24"
  fill="none"
>
  <g clip-path="url(#clip0_6_282)">
    <path
      fill-rule="evenodd"
      clip-rule="evenodd"
      d="M5.669 4.75997C5.69581 4.53281 5.77529 4.31506 5.90112 4.12404C6.02694 3.93303 6.19563 3.77404 6.39375 3.65973C6.59187 3.54542 6.81395 3.47896 7.04229 3.46563C7.27063 3.4523 7.49893 3.49248 7.709 3.58297C8.771 4.03697 11.151 5.11597 14.171 6.85897C17.192 8.60297 19.317 10.126 20.24 10.817C21.028 11.408 21.03 12.58 20.241 13.173C19.327 13.86 17.228 15.363 14.171 17.129C11.111 18.895 8.759 19.961 7.707 20.409C6.801 20.796 5.787 20.209 5.669 19.232C5.531 18.09 5.273 15.497 5.273 11.995C5.273 8.49497 5.53 5.90297 5.669 4.75997Z"
      fill="white"
    />
  </g>
  <defs>
    <clipPath id="clip0_6_282">
      <rect width="24" height="24" fill="white" />
    </clipPath>
  </defs>
</svg>
